<svg xmlns="http://www.w3.org/2000/svg" width="500" height="500" viewBox="0 0 500 500" version="1.1">
	<path d="M 142 62.420 L 34.500 124.628 34.292 250.064 L 34.085 375.500 142.060 437.734 L 250.035 499.968 286.267 479.094 C 306.195 467.614, 354.892 439.553, 394.481 416.737 L 466.463 375.254 466.151 250.377 C 465.917 156.718, 465.546 125.223, 464.669 124.391 C 463.591 123.367, 249.907 -0.132, 249.625 0.105 C 249.556 0.163, 201.125 28.205, 142 62.420 M 246.760 154.750 C 245.908 155.713, 239.359 168.219, 232.206 182.542 L 219.201 208.583 189.851 212.840 C 165.492 216.373, 160.160 217.435, 158.500 219.083 L 156.500 221.070 158.500 224.300 C 159.600 226.077, 169.500 236.299, 180.500 247.015 L 200.500 266.500 195.500 296.241 C 190.209 327.715, 190.184 329.126, 194.915 329.828 C 196.280 330.030, 207.041 324.959, 223.033 316.578 C 237.282 309.110, 249.395 303, 249.950 303 C 250.506 303, 262.580 309.075, 276.782 316.500 C 290.983 323.925, 303.602 330, 304.823 330 C 309.723 330, 309.689 327.148, 304.418 296.021 L 299.511 267.049 321.255 245.223 C 333.215 233.218, 343 222.907, 343 222.309 C 343 221.711, 342.212 220.295, 341.250 219.163 C 339.740 217.387, 335.592 216.546, 311 213.035 C 295.325 210.797, 281.958 208.636, 281.296 208.233 C 280.634 207.830, 274.405 196.025, 267.452 182 C 260.500 167.975, 254.109 155.713, 253.251 154.750 C 252.392 153.787, 250.930 153, 250 153 C 249.070 153, 247.613 153.787, 246.760 154.750" stroke="none" fill="black" fill-rule="evenodd"/>
</svg>